<?xml version="1.0" encoding="UTF-8" standalone="no"?>
<!DOCTYPE svg PUBLIC "-//W3C//DTD SVG 1.1//EN" "http://www.w3.org/Graphics/SVG/1.1/DTD/svg11.dtd">
<svg width="100%" height="100%" viewBox="0 0 128 128" version="1.1" xmlns="http://www.w3.org/2000/svg" xmlns:xlink="http://www.w3.org/1999/xlink" xml:space="preserve" xmlns:serif="http://www.serif.com/" style="fill-rule:evenodd;clip-rule:evenodd;stroke-linejoin:round;stroke-miterlimit:2;">
    <path d="M128,32C128,14.339 113.661,0 96,0L32,0C14.339,0 0,14.339 0,32L0,96C0,113.661 14.339,128 32,128L96,128C113.661,128 128,113.661 128,96L128,32Z" style="fill:rgb(13,110,253);"/>
    <g transform="matrix(106.599,0,0,106.599,12.3661,103.975)">
        <path d="M0.484,-0.859C0.217,-0.859 0,-0.643 0,-0.375C0,-0.107 0.217,0.109 0.484,0.109C0.752,0.109 0.969,-0.107 0.969,-0.375C0.969,-0.643 0.752,-0.859 0.484,-0.859ZM0.835,-0.547L0.703,-0.547C0.69,-0.618 0.669,-0.681 0.642,-0.732C0.726,-0.695 0.794,-0.629 0.835,-0.547ZM0.484,-0.766C0.521,-0.766 0.579,-0.685 0.608,-0.547L0.361,-0.547C0.389,-0.685 0.448,-0.766 0.484,-0.766ZM0.094,-0.375C0.094,-0.402 0.096,-0.428 0.102,-0.453L0.253,-0.453C0.251,-0.428 0.25,-0.402 0.25,-0.375C0.25,-0.348 0.251,-0.322 0.253,-0.297L0.102,-0.297C0.096,-0.322 0.094,-0.348 0.094,-0.375ZM0.134,-0.203L0.265,-0.203C0.279,-0.132 0.3,-0.069 0.326,-0.018C0.243,-0.055 0.175,-0.121 0.134,-0.203ZM0.265,-0.547L0.134,-0.547C0.175,-0.629 0.243,-0.695 0.326,-0.732C0.3,-0.681 0.279,-0.618 0.265,-0.547ZM0.484,0.016C0.448,0.016 0.389,-0.065 0.361,-0.203L0.608,-0.203C0.579,-0.065 0.521,0.016 0.484,0.016ZM0.621,-0.297L0.347,-0.297C0.345,-0.322 0.344,-0.348 0.344,-0.375C0.344,-0.402 0.345,-0.428 0.347,-0.453L0.621,-0.453C0.624,-0.428 0.625,-0.402 0.625,-0.375C0.625,-0.348 0.623,-0.322 0.621,-0.297ZM0.642,-0.018C0.669,-0.069 0.69,-0.132 0.703,-0.203L0.835,-0.203C0.794,-0.121 0.726,-0.055 0.642,-0.018ZM0.715,-0.297C0.717,-0.322 0.719,-0.348 0.719,-0.375C0.719,-0.402 0.717,-0.428 0.715,-0.453L0.867,-0.453C0.872,-0.428 0.875,-0.402 0.875,-0.375C0.875,-0.348 0.872,-0.322 0.867,-0.297L0.715,-0.297Z" style="fill:rgb(248,249,250);fill-rule:nonzero;"/>
    </g>
</svg>
